<svg width="42" height="60" viewBox="0 0 42 60" fill="none" xmlns="http://www.w3.org/2000/svg">
<path d="M22.4086 39.5655C23.0881 39.5655 23.6441 39.0096 23.6441 38.3301V37.7556C23.6441 37.0761 23.0881 36.5201 22.4086 36.5201H1.77647C1.09697 36.5201 0.541016 37.0761 0.541016 37.7556V38.3301C0.541016 39.0096 1.09697 39.5655 1.77647 39.5655H22.4086Z" fill="#F1A7B6"/>
<path d="M35.3625 14.0966C33.4228 12.1569 31.1681 10.6373 28.6477 9.56862L28.6354 9.56244C27.8138 9.21651 26.8626 9.51302 26.3807 10.2605L24.9476 12.4905C24.5893 12.3669 24.2063 12.2928 23.811 12.2619C23.6936 12.2557 23.5701 12.2496 23.4465 12.2496C23.113 12.2496 22.7856 12.2866 22.4705 12.3546L24.997 8.41347L25.7815 7.19036C26.3313 6.33172 26.0842 5.18274 25.2193 4.63297L18.4676 0.290333C18.1587 0.0926593 17.8128 0 17.4668 0C16.8554 0 16.2561 0.302687 15.904 0.852466L4.16095 19.1619C3.61117 20.0206 3.85826 21.1696 4.72308 21.7193L6.00178 22.5409L5.42112 23.449L4.84045 24.357L4.47599 24.9254C3.92621 25.7839 4.1733 26.933 5.03812 27.4827L6.13768 28.1869C6.99633 28.7367 8.1453 28.4896 8.69508 27.6248L9.05954 27.0565L9.64015 26.1484L10.2208 25.2403L11.481 26.0496C11.7898 26.2472 12.1358 26.3399 12.4816 26.3399C13.0932 26.3399 13.6925 26.0373 14.0446 25.4874L18.8628 17.9697C18.9617 18.4144 19.1222 18.8345 19.3447 19.2237C19.5362 19.5634 19.7647 19.8785 20.0304 20.1564C20.9199 21.0954 22.1862 21.676 23.5885 21.6328C26.0656 21.5587 28.0794 19.5449 28.1474 17.0678C28.1659 16.4624 28.0671 15.8817 27.8756 15.3443C29.1666 16.0485 30.365 16.9442 31.4338 18.0129C34.3742 20.9533 35.9926 24.8573 35.9926 29.0147C35.9926 33.172 34.3742 37.0761 31.4338 40.0165C29.6052 41.8449 27.4062 43.1607 25.0031 43.8958C24.8241 43.9514 24.6387 43.9761 24.4534 43.9761H18.375C17.3495 43.9761 16.5218 43.1484 16.5218 42.1229V41.709H7.66971V43.9761V46.9041V50.0483C7.86121 50.036 8.05888 50.0297 8.25032 50.0297H20.4258H22.6434H33.2251H34.683H34.825C36.9377 49.6529 38.5499 47.8059 38.5499 45.5821C38.5499 44.2108 37.9385 42.9814 36.9747 42.1537C38.1608 40.6588 39.143 39.0156 39.8904 37.249C40.99 34.6422 41.5521 31.8747 41.5521 29.027C41.5521 26.1792 40.9962 23.4119 39.8904 20.805C38.8217 18.2909 37.3021 16.0301 35.3625 14.0966ZM23.4465 18.6369C22.662 18.6369 22.0072 18.1056 21.8157 17.3767C21.7786 17.2408 21.7601 17.0926 21.7601 16.9443C21.7601 16.1104 22.3655 15.4185 23.1624 15.2826C23.255 15.2641 23.3539 15.2579 23.4527 15.2579C24.3855 15.2579 25.1391 16.0115 25.1391 16.9443C25.1391 17.8771 24.3792 18.6369 23.4465 18.6369ZM34.683 47.0215C34.4853 47.1142 34.2629 47.1636 34.0282 47.1636C33.4042 47.1636 32.8668 46.8053 32.6136 46.2802C32.5086 46.0702 32.453 45.8292 32.453 45.5821C32.453 44.7111 33.1571 44.0008 34.0343 44.0008C34.2691 44.0008 34.4915 44.0502 34.6891 44.1428C34.7942 44.1923 34.8992 44.254 34.9918 44.322C35.3686 44.6123 35.6157 45.0633 35.6157 45.576C35.6096 46.2246 35.2266 46.7744 34.683 47.0215Z" fill="#F1A7B6"/>
<path d="M7.6695 52.2167C3.62955 52.5132 0.448242 55.886 0.448242 60H32.8296C33.855 60 34.6828 59.1723 34.6828 58.1468V55.1756V52.1981H8.25016C8.05249 52.1981 7.861 52.2043 7.6695 52.2167Z" fill="#F1A7B6"/>
</svg>
