<svg width="60" height="60" viewBox="0 0 60 60" fill="none" xmlns="http://www.w3.org/2000/svg">
<g clip-path="url(#clip0)">
<path d="M30.9796 16.2289C30.368 15.6234 29.2818 15.6666 28.726 16.3077L4.63849 43.8355C4.12685 44.4189 3.84521 45.1676 3.84521 45.9435C3.84521 46.7856 4.18647 47.6094 4.7826 48.2065L11.7935 55.2183C12.3906 55.8145 13.2153 56.1548 14.0565 56.1548C14.8324 56.1548 15.5811 55.8731 16.1645 55.3624L43.6904 31.2768C44.0274 30.9843 44.2208 30.5595 44.2208 30.1117C44.2208 29.7001 44.0612 29.3128 43.7678 29.0176L30.9796 16.2289ZM14.8985 53.9157C14.4123 54.3405 13.6096 54.3138 13.1529 53.858L6.14291 46.8481C5.90445 46.6096 5.76786 46.2801 5.76786 45.9435C5.76786 45.6342 5.88052 45.3352 6.08517 45.1014L29.9075 17.876L42.124 30.0925L14.8985 53.9157Z" fill="#F1A7B6"/>
<path d="M48.0661 30.1117C48.0661 29.1664 47.8028 28.2698 47.3489 27.469L52.3095 22.5085L50.3868 20.5858L60.0001 10.9726L49.0275 0L39.4142 9.61323L37.4916 7.69058L32.531 12.6512C31.7312 12.1973 30.8337 11.9339 29.8883 11.9339C28.3341 11.9339 26.8546 12.6047 25.8309 13.7749L1.74287 41.304C0.619133 42.5897 0 44.2373 0 45.9435C0 47.8258 0.733666 49.5954 2.06393 50.9262L9.07389 57.9371C10.4056 59.2664 12.1743 60.0001 14.0565 60.0001C15.7637 60.0001 17.4113 59.38 18.697 58.2572L46.2252 34.1692C47.3949 33.1445 48.0661 31.6659 48.0661 30.1117ZM49.0275 2.71874L57.2813 10.9726L49.0275 19.2265L40.7736 10.9726L49.0275 2.71874ZM49.5907 22.5085L46.1435 25.9557L34.0443 13.8566L37.4916 10.4093L49.5907 22.5085ZM44.9592 32.7216L17.4296 56.8096C16.4955 57.6263 15.2976 58.0774 14.0565 58.0774C12.6887 58.0774 11.4012 57.5437 10.4333 56.5768L3.4233 49.5659C2.46949 48.612 1.92265 47.2921 1.92265 45.9435C1.92265 44.7024 2.37233 43.5045 3.18954 42.5695L27.2775 15.0409C27.937 14.2879 28.8885 13.8566 29.8883 13.8566C30.8154 13.8566 31.6861 14.2171 32.3409 14.8728L45.1272 27.6592C45.783 28.314 46.1435 29.1847 46.1435 30.1117C46.1435 31.1111 45.7116 32.063 44.9592 32.7216Z" fill="#F1A7B6"/>
<path d="M49.0274 14.8179C51.1482 14.8179 52.8727 13.0933 52.8727 10.9726C52.8727 8.85188 51.1482 7.12732 49.0274 7.12732C46.9067 7.12732 45.1821 8.85188 45.1821 10.9726C45.1821 13.0933 46.9067 14.8179 49.0274 14.8179ZM49.0274 9.04996C50.0878 9.04996 50.9501 9.91224 50.9501 10.9726C50.9501 12.033 50.0878 12.8953 49.0274 12.8953C47.9671 12.8953 47.1048 12.033 47.1048 10.9726C47.1048 9.91224 47.9671 9.04996 49.0274 9.04996Z" fill="#F1A7B6"/>
<path d="M23.6353 28.2765L31.7239 36.3651L37.8899 30.1991L29.8012 22.1105L23.6353 28.2765ZM31.7239 33.6463L26.354 28.2765L29.8012 24.8292L35.1711 30.1991L31.7239 33.6463Z" fill="#F1A7B6"/>
<path d="M20.4688 31.8401L21.8281 30.4802L29.5187 38.1713L28.1593 39.5307L20.4688 31.8401Z" fill="#F1A7B6"/>
<path d="M17.585 34.724L18.9443 33.3641L26.6349 41.0552L25.2755 42.4146L17.585 34.724Z" fill="#F1A7B6"/>
<path d="M56.7182 46.5416H50.8578C50.9155 46.2454 50.9503 45.9408 50.9503 45.6272C50.9503 44.8006 50.7329 43.9834 50.3236 43.2661L46.1437 35.9515L41.9637 43.2652C41.5544 43.9834 41.337 44.7996 41.337 45.6272C41.337 45.9408 41.3718 46.2454 41.4295 46.5416H35.5691C33.9793 46.5416 32.6851 47.8352 32.6851 49.4255C32.6851 51.0154 33.9793 52.3095 35.5691 52.3095H40.3757C40.9052 52.3095 41.337 52.74 41.337 53.2708C41.337 53.8013 40.9052 54.2322 40.3757 54.2322H31.7238C30.134 54.2322 28.8398 55.5258 28.8398 57.1161C28.8398 58.706 30.134 60.0001 31.7238 60.0001H54.7956C56.3854 60.0001 57.6795 58.706 57.6795 57.1161C57.6795 55.5258 56.3854 54.2322 54.7956 54.2322H51.9116C51.3821 54.2322 50.9503 53.8013 50.9503 53.2708C50.9503 52.74 51.3821 52.3095 51.9116 52.3095H56.7182C58.308 52.3095 59.6022 51.0154 59.6022 49.4255C59.6022 47.8352 58.308 46.5416 56.7182 46.5416ZM43.6338 44.2199L46.1437 39.8278L48.6535 44.2199C48.899 44.6466 49.0276 45.1343 49.0276 45.6272C49.0276 47.1912 47.7546 48.4642 46.0967 48.4642C44.5327 48.4642 43.2597 47.1912 43.2597 45.6272C43.2597 45.1343 43.3883 44.6466 43.6338 44.2199ZM56.7182 50.3869H51.9116C50.3217 50.3869 49.0276 51.6805 49.0276 53.2708C49.0276 54.8607 50.3217 56.1548 51.9116 56.1548H54.7956C55.325 56.1548 55.7569 56.5852 55.7569 57.1161C55.7569 57.6465 55.325 58.0774 54.7956 58.0774H31.7238C31.1943 58.0774 30.7625 57.6465 30.7625 57.1161C30.7625 56.5852 31.1943 56.1548 31.7238 56.1548H40.3757C41.9656 56.1548 43.2597 54.8607 43.2597 53.2708C43.2597 51.6805 41.9656 50.3869 40.3757 50.3869H35.5691C35.0396 50.3869 34.6078 49.956 34.6078 49.4255C34.6078 48.8947 35.0396 48.4642 35.5691 48.4642H42.304C43.1818 49.6246 44.5777 50.3869 46.1906 50.3869C47.748 50.3869 49.121 49.6246 49.9899 48.4642H56.7182C57.2477 48.4642 57.6795 48.8947 57.6795 49.4255C57.6795 49.956 57.2477 50.3869 56.7182 50.3869Z" fill="#F1A7B6"/>
</g>
<defs>
<clipPath id="clip0">
<rect width="60" height="60" fill="white"/>
</clipPath>
</defs>
</svg>
