<svg width="54" height="60" viewBox="0 0 54 60" fill="none" xmlns="http://www.w3.org/2000/svg">
<path d="M15.6842 32.3692C15.8522 32.3692 16.0221 32.321 16.1723 32.2205C17.1091 31.5934 18.2029 31.262 19.3356 31.262C20.9775 31.262 22.54 31.9712 23.6225 33.2078C23.7961 33.4063 24.0395 33.5078 24.2841 33.5078C24.4896 33.5078 24.6959 33.4362 24.8627 33.2902C25.228 32.9705 25.2649 32.4152 24.9451 32.05C24.7112 31.7828 24.4586 31.5363 24.1927 31.3078C24.5864 30.9048 24.8123 30.3621 24.8123 29.7823V26.792C24.8123 26.3066 24.4188 25.9131 23.9334 25.9131C23.448 25.9131 23.0545 26.3066 23.0545 26.792V29.7823C23.0545 29.9864 22.9323 30.0953 22.8596 30.1422C22.797 30.1827 22.6282 30.2662 22.4181 30.1706C21.4468 29.7284 20.4097 29.5041 19.3354 29.5041C17.8535 29.5041 16.4214 29.9383 15.1943 30.7597C14.791 31.0297 14.6828 31.5756 14.9528 31.9789C15.1225 32.2323 15.4008 32.3692 15.6842 32.3692Z" fill="#F1A7B6"/>
<path d="M53.0747 46.2372H49.8027C49.4822 44.3901 48.1671 42.8752 46.3759 42.3055C46.3733 42.2712 46.3693 42.2373 46.3662 42.2032C46.3639 42.1792 46.362 42.1551 46.3594 42.1312C46.3507 42.049 46.3405 41.9675 46.3282 41.8865C46.328 41.8851 46.3279 41.8835 46.3276 41.8821C45.9874 39.6484 44.3034 37.8508 42.1055 37.3626C42.113 37.2269 42.1169 37.0917 42.1169 36.9574C42.1169 32.8479 38.7736 29.5045 34.664 29.5045C33.5897 29.5045 32.5525 29.7287 31.5812 30.1709C31.3713 30.2664 31.2026 30.1829 31.1399 30.1426C31.0671 30.0957 30.945 29.9867 30.945 29.7827V26.7924C30.945 26.307 30.5515 25.9135 30.0661 25.9135C29.5807 25.9135 29.1872 26.307 29.1872 26.7924V29.7827C29.1872 30.5301 29.5616 31.2173 30.1887 31.6208C30.8244 32.0299 31.6173 32.086 32.3095 31.7707C33.0505 31.4334 33.8426 31.2623 34.6639 31.2623C37.8041 31.2623 40.3589 33.8172 40.3589 36.9574C40.3589 37.0582 40.3551 37.1599 40.3494 37.2619C39.6283 37.3354 38.9248 37.5486 38.2893 37.8938C37.8627 38.1255 37.7048 38.6592 37.9365 39.0857C38.1683 39.5121 38.7016 39.6702 39.1283 39.4384C39.6696 39.1444 40.2838 38.989 40.9048 38.989C40.9671 38.989 41.0291 38.9906 41.0907 38.9937C41.0908 38.9937 41.0909 38.9937 41.0909 38.9937C41.1268 38.9954 41.162 38.9987 41.1975 39.0015C41.2252 39.0037 41.253 39.0051 41.2804 39.0078C41.2988 39.0097 41.317 39.0125 41.3352 39.0145C41.3805 39.0198 41.4256 39.0249 41.4704 39.0317C41.474 39.0323 41.4776 39.033 41.4814 39.0336C43.0762 39.2823 44.3394 40.5454 44.5882 42.1402C44.5888 42.1441 44.5896 42.1478 44.5902 42.1517C44.5983 42.2043 44.6046 42.2574 44.6104 42.3107C44.6115 42.3203 44.613 42.3297 44.614 42.3393C44.6191 42.3898 44.6225 42.4408 44.6256 42.4919C44.6263 42.5038 44.6276 42.5157 44.6281 42.5276C44.6313 42.5904 44.6329 42.6536 44.6329 42.7171C44.6329 42.7844 44.6305 42.8591 44.6252 42.9456C44.5981 43.3959 44.9163 43.7936 45.3616 43.866C46.6613 44.0772 47.6712 45.0199 48.0035 46.2374H39.8538C39.4008 39.541 33.8092 34.2313 27.0001 34.2313C20.1909 34.2313 14.5993 39.541 14.1463 46.2374H5.99621C6.32867 45.0199 7.33849 44.0772 8.63812 43.866C8.73164 43.8508 8.81906 43.8206 8.89934 43.7792C8.98489 43.807 9.07606 43.8224 9.17098 43.8224C10.1906 43.8224 11.1365 44.2837 11.766 45.0877C11.9393 45.3092 12.1977 45.4249 12.4587 45.4249C12.6482 45.4249 12.8391 45.3638 12.9999 45.238C13.3822 44.9387 13.4494 44.3862 13.1503 44.0041C12.2375 42.8381 10.8902 42.1434 9.42353 42.0716C9.71732 40.3839 11.1425 39.08 12.909 38.9935C13.1612 38.9812 13.3959 38.8609 13.5534 38.6634C13.7108 38.466 13.7756 38.2104 13.7314 37.9617C13.6715 37.6249 13.6411 37.2869 13.6411 36.957C13.6411 36.1049 13.8243 35.2858 14.1859 34.5225C14.3936 34.0838 14.2064 33.5597 13.7677 33.3519C13.3287 33.1439 12.805 33.3313 12.5971 33.7701C12.1233 34.7705 11.8831 35.8428 11.8831 36.957C11.8831 37.0913 11.887 37.2267 11.8945 37.3623C9.55923 37.8809 7.80362 39.8776 7.62408 42.3053C5.83296 42.875 4.51775 44.39 4.19723 46.237H0.925306C0.439908 46.237 0.0463867 46.6305 0.0463867 47.1159C0.0463867 47.6013 0.439908 47.9949 0.925306 47.9949H14.146C14.2932 50.1688 14.9845 52.2623 16.1688 54.0962C16.4322 54.504 16.9761 54.621 17.384 54.3576C17.7917 54.0943 17.9089 53.5503 17.6454 53.1425C16.4861 51.3473 15.8733 49.2631 15.8733 47.1152C15.8733 40.98 20.8646 35.9887 26.9998 35.9887C33.135 35.9887 38.1264 40.98 38.1264 47.1152C38.1264 53.2504 33.135 58.2418 26.9998 58.2418C24.3579 58.2418 21.7971 57.2998 19.7892 55.5894C19.4197 55.2747 18.8649 55.319 18.5501 55.6886C18.2353 56.0581 18.2798 56.6128 18.6493 56.9276C20.975 58.9087 23.9406 59.9996 26.9998 59.9996C33.8086 59.9996 39.3999 54.6905 39.8535 47.9947H53.0744C53.5598 47.9947 53.9534 47.6012 53.9534 47.1158C53.9534 46.6304 53.5601 46.2372 53.0747 46.2372Z" fill="#F1A7B6"/>
<path d="M34.0929 40.7653C32.2883 38.751 29.7031 37.5956 27.0001 37.5956C21.7507 37.5956 17.48 41.8663 17.48 47.1157C17.48 52.3651 21.7507 56.6358 27.0001 56.6358C32.2495 56.6358 36.5202 52.3651 36.5202 47.1157C36.5202 46.0974 36.3601 45.095 36.0444 44.1363C35.8925 43.675 35.3955 43.4242 34.9347 43.5763C34.4736 43.7281 34.2229 44.225 34.3748 44.686C34.6319 45.4671 34.7624 46.2845 34.7624 47.1156C34.7624 51.3957 31.2802 54.8778 27.0001 54.8778C22.72 54.8778 19.2378 51.3957 19.2378 47.1156C19.2378 42.8355 22.72 39.3533 27.0001 39.3533C29.204 39.3533 31.312 40.2955 32.7836 41.9381C33.1075 42.2997 33.6631 42.3303 34.0247 42.0064C34.3863 41.6826 34.4168 41.1268 34.0929 40.7653Z" fill="#F1A7B6"/>
<path d="M21.7931 44.4391C21.3333 44.2847 20.8346 44.5322 20.6801 44.9923C20.4507 45.675 20.3345 46.3893 20.3345 47.1156C20.3345 50.791 23.3246 53.7811 27 53.7811C30.6754 53.7811 33.6655 50.791 33.6655 47.1156C33.6655 43.4402 30.6754 40.4501 27 40.4501C26.5146 40.4501 26.121 40.8436 26.121 41.329C26.121 41.8144 26.5146 42.2079 27 42.2079C29.7061 42.2079 31.9076 44.4094 31.9076 47.1156C31.9076 49.8217 29.7061 52.0232 27 52.0232C24.2938 52.0232 22.0923 49.8217 22.0923 47.1156C22.0923 46.58 22.1777 46.0539 22.3464 45.552C22.501 45.0919 22.2533 44.5937 21.7931 44.4391Z" fill="#F1A7B6"/>
<path d="M27.0002 47.9943C27.2251 47.9943 27.4501 47.9085 27.6216 47.7368C27.9649 47.3936 27.9649 46.8371 27.6216 46.494L23.9349 42.8072C23.5917 42.464 23.0351 42.464 22.692 42.8072C22.3488 43.1505 22.3488 43.707 22.692 44.0501L26.3787 47.7368C26.5503 47.9085 26.7753 47.9943 27.0002 47.9943Z" fill="#F1A7B6"/>
<path d="M16.8984 19.6985C16.8984 20.2777 16.9506 20.8689 17.0535 21.4557C17.1271 21.8762 17.4924 22.183 17.9192 22.183H22.4212C22.5834 22.6161 22.7493 23.0364 22.9182 23.4396C23.0551 23.7663 23.3747 23.9789 23.7288 23.9789H30.2715C30.6256 23.9789 30.9453 23.7663 31.0821 23.4396C31.251 23.0364 31.4169 22.6162 31.5791 22.183H36.0811C36.5081 22.183 36.8732 21.8763 36.9468 21.4557C37.0497 20.8689 37.1019 20.2777 37.1019 19.6985C37.1019 17.0053 36.0186 14.419 34.1147 12.5282C34.3116 11.2538 34.4223 10.095 34.4223 9.15185C34.4223 7.91996 34.044 6.77244 33.4636 5.73614C33.462 5.73309 33.4608 5.72981 33.459 5.72664C33.4488 5.70848 33.4378 5.69102 33.4275 5.67297C33.3885 5.60453 33.3485 5.53656 33.3079 5.46918C33.2922 5.44316 33.2767 5.41703 33.2608 5.39113C33.2086 5.30664 33.1552 5.22297 33.1007 5.14011C33.0852 5.11667 33.0694 5.09347 33.0538 5.07003C33.0047 4.99679 32.9547 4.92402 32.9038 4.85206C32.8929 4.83659 32.8822 4.82101 32.8712 4.80565C32.8086 4.718 32.7448 4.63163 32.6798 4.54596C32.6704 4.53342 32.6606 4.52088 32.6511 4.50834C30.6395 1.87627 27.6088 0.20773 27.4187 0.104838C27.3945 0.0917129 27.3693 0.0810487 27.3442 0.0703844C27.3355 0.0667516 27.3272 0.0618296 27.3184 0.0584311C27.3129 0.0563217 27.3072 0.0551498 27.3017 0.0530404C27.0735 -0.0303984 26.8193 -0.0161013 26.6002 0.0961661C26.5941 0.0993302 26.5876 0.101557 26.5815 0.104838H26.5814C26.5804 0.105424 26.5762 0.107768 26.5735 0.109174C26.5717 0.110112 26.5711 0.110463 26.5688 0.111752C26.5648 0.113979 26.5594 0.116909 26.5535 0.12019C26.549 0.122651 26.545 0.124995 26.5394 0.128042C26.5323 0.131909 26.5244 0.136479 26.5156 0.141401C26.509 0.145151 26.5024 0.148784 26.4948 0.15312C26.485 0.158745 26.4747 0.164605 26.4631 0.171167C26.454 0.176324 26.4446 0.181714 26.4347 0.187457C26.4224 0.194605 26.4101 0.201636 26.3964 0.209605C26.3847 0.216402 26.3719 0.223785 26.3591 0.231285C26.3449 0.239606 26.3312 0.247575 26.3159 0.256598C26.2988 0.266677 26.28 0.27781 26.2614 0.288825C26.2485 0.296443 26.2367 0.303474 26.2231 0.31156C26.1903 0.331131 26.1553 0.352225 26.1187 0.374608C26.1086 0.380702 26.0976 0.387499 26.0871 0.393944C26.0584 0.411405 26.0292 0.429335 25.9985 0.448437C25.9859 0.456289 25.9725 0.464609 25.9595 0.472813C25.9289 0.491797 25.8979 0.511251 25.8655 0.531642C25.852 0.540196 25.8382 0.548868 25.8245 0.557658C25.7899 0.579572 25.7545 0.60219 25.7182 0.625628C25.7059 0.633596 25.6937 0.641448 25.6812 0.649534C25.6399 0.676253 25.5976 0.703793 25.5542 0.732387C25.5451 0.738246 25.5365 0.743989 25.5274 0.749965C25.3702 0.853678 25.2005 0.968406 25.0201 1.09509C25.0184 1.09638 25.0168 1.09778 25.015 1.09907C24.8803 1.19364 24.7406 1.29408 24.5961 1.40095C24.206 1.68971 24.1237 2.24014 24.4126 2.63027C24.7014 3.02039 25.2518 3.10254 25.6419 2.81379C26.1918 2.40679 26.6765 2.09448 27 1.89655C27.3044 2.08288 27.7517 2.37058 28.2637 2.74441C28.2668 2.74664 28.2699 2.74886 28.2729 2.75121C28.433 2.86828 28.5998 2.99426 28.7701 3.12762C28.7914 3.14438 28.8128 3.16125 28.8344 3.17825C28.9019 3.23157 28.9699 3.28618 29.0383 3.34196C29.0555 3.35602 29.0726 3.3695 29.0899 3.38368C29.1656 3.44591 29.242 3.51013 29.3185 3.57505C29.3527 3.60411 29.3869 3.63376 29.4213 3.66341C29.47 3.70548 29.5189 3.74849 29.5678 3.79173C29.6035 3.82337 29.6393 3.85478 29.6751 3.88701C29.7416 3.94689 29.8079 4.00818 29.8741 4.07006C29.911 4.10463 29.948 4.13955 29.9853 4.17506C30.0348 4.22229 30.0841 4.27022 30.1333 4.3185C30.1869 4.37123 30.2406 4.42467 30.2942 4.47928C30.3228 4.50823 30.3512 4.53764 30.3797 4.56694C30.4476 4.63725 30.5154 4.70862 30.5827 4.78175C30.5929 4.79276 30.603 4.80401 30.6132 4.81503C30.7496 4.96398 30.8844 5.11855 31.0159 5.27828H22.9822C23.0482 5.19824 23.116 5.11832 23.1856 5.03863C23.505 4.673 23.4674 4.11775 23.1016 3.79841C22.7361 3.47919 22.1809 3.51681 21.8615 3.88232C21.6712 4.10041 21.4923 4.32026 21.3244 4.54116C21.3192 4.54772 21.3134 4.5537 21.3083 4.56049C21.1986 4.70546 21.0957 4.85077 20.9963 4.99632C20.9845 5.01366 20.9724 5.03101 20.9607 5.04835C20.9192 5.10976 20.8789 5.17117 20.8394 5.23269C20.8245 5.25578 20.8099 5.27886 20.7952 5.30207C20.7574 5.36195 20.7199 5.42195 20.6838 5.48184C20.6711 5.50281 20.6592 5.52379 20.6467 5.54477C19.9377 6.74314 19.5777 7.95242 19.5777 9.15209C19.5777 10.0952 19.6885 11.2541 19.8854 12.5284C17.9817 14.419 16.8984 17.0053 16.8984 19.6985ZM35.344 19.6985C35.344 19.9384 35.3331 20.1812 35.3114 20.4251H32.1937C32.7975 18.5797 33.3217 16.6051 33.7099 14.7433C34.7605 16.1677 35.344 17.904 35.344 19.6985ZM32.155 7.036C32.468 7.70269 32.6644 8.4145 32.6644 9.15197C32.6644 10.1112 32.5414 11.3108 32.3243 12.6328C32.3127 12.6788 32.3054 12.7254 32.3013 12.7723C31.7981 15.764 30.8205 19.3564 29.6809 22.221H24.3193C23.1798 19.3564 22.2021 15.764 21.6989 12.7723C21.6948 12.7254 21.6875 12.6788 21.6759 12.6328C21.4587 11.3108 21.3358 10.1112 21.3358 9.15197C21.3358 8.46278 21.5067 7.75496 21.8434 7.036H32.155ZM21.8066 20.4251H18.6889C18.6672 20.1812 18.6563 19.9384 18.6563 19.6985C18.6563 17.904 19.2398 16.1677 20.2904 14.7432C20.6786 16.6051 21.2027 18.5797 21.8066 20.4251Z" fill="#F1A7B6"/>
<path d="M27.0001 14.0878C28.6599 14.0878 30.0103 12.7374 30.0103 11.0775C30.0103 9.41761 28.6599 8.06714 27.0001 8.06714C25.3402 8.06714 23.9897 9.41749 23.9897 11.0775C23.9899 12.7374 25.3402 14.0878 27.0001 14.0878ZM27.0001 9.82507C27.6907 9.82507 28.2525 10.3869 28.2525 11.0776C28.2525 11.7683 27.6907 12.3301 27.0001 12.3301C26.3095 12.3301 25.7476 11.7683 25.7476 11.0776C25.7477 10.3869 26.3095 9.82507 27.0001 9.82507Z" fill="#F1A7B6"/>
</svg>
