<svg width="60" height="56" viewBox="0 0 60 56" fill="none" xmlns="http://www.w3.org/2000/svg">
<path d="M10.8719 35.5695C13.3037 35.5695 15.2813 32.9147 15.2813 29.651C15.2813 26.3873 13.3037 23.7325 10.8719 23.7325C8.43953 23.7325 6.46191 26.3873 6.46191 29.651C6.46191 32.9147 8.43953 35.5695 10.8719 35.5695Z" fill="#F1A7B6"/>
<path d="M21.3836 35.5695C23.8128 35.5695 25.793 32.9147 25.793 29.651C25.793 26.3873 23.8131 23.7325 21.3836 23.7325C18.9512 23.7325 16.9736 26.3873 16.9736 29.651C16.9736 32.9147 18.9512 35.5695 21.3836 35.5695Z" fill="#F1A7B6"/>
<path d="M29.6154 32.6175C27.7028 32.2408 25.8158 33.9279 25.3169 36.4614C24.8188 38.9922 25.925 41.2691 27.8379 41.6454C29.7485 42.0215 31.6377 40.3345 32.1358 37.8037C32.6347 35.2705 31.5257 32.9936 29.6154 32.6175Z" fill="#F1A7B6"/>
<path d="M6.9377 36.4614C6.43881 33.9279 4.55213 32.2408 2.63926 32.6175C0.728948 32.9936 -0.380089 35.2702 0.118811 37.804C0.61694 40.3347 2.50618 42.0218 4.41675 41.6457C6.32962 41.2691 7.43583 38.9922 6.9377 36.4614Z" fill="#F1A7B6"/>
<path d="M22.7838 42.9744C22.2649 39.7678 19.4783 37.311 16.1275 37.311C12.7768 37.311 9.98994 39.7678 9.47126 42.9744C7.0862 44.0148 5.41455 46.3945 5.41455 49.1582C5.41455 52.8769 8.4398 55.9021 12.1584 55.9021C13.6413 55.9021 15.0131 55.4199 16.1278 54.6055C17.2422 55.4199 18.6141 55.9021 20.0971 55.9021C23.8158 55.9021 26.841 52.8769 26.841 49.1582C26.8408 46.3945 25.1686 44.0148 22.7838 42.9744Z" fill="#F1A7B6"/>
<path d="M38.6175 11.9347C41.0493 11.9347 43.0269 9.27989 43.0269 6.01624C43.0269 2.75258 41.0493 0.0977783 38.6175 0.0977783C36.1851 0.0977783 34.2075 2.75258 34.2075 6.01624C34.2075 9.27989 36.1851 11.9347 38.6175 11.9347Z" fill="#F1A7B6"/>
<path d="M49.1287 11.9347C51.5579 11.9347 53.5381 9.27989 53.5381 6.01624C53.5381 2.75258 51.5582 0.0977783 49.1287 0.0977783C46.6964 0.0977783 44.7188 2.75258 44.7188 6.01624C44.7188 9.27989 46.6964 11.9347 49.1287 11.9347Z" fill="#F1A7B6"/>
<path d="M57.3605 8.98269C55.4479 8.60607 53.5609 10.2931 53.062 12.8267C52.5639 15.3574 53.6701 17.6343 55.583 18.0107C57.4936 18.3868 59.3828 16.6997 59.881 14.169C60.3799 11.6357 59.2708 9.35879 57.3605 8.98269Z" fill="#F1A7B6"/>
<path d="M32.1623 18.0109C34.075 17.6343 35.1814 15.3574 34.6833 12.8269C34.1844 10.2934 32.2977 8.60632 30.3849 8.98293C28.4746 9.35903 27.3655 11.6357 27.8644 14.1695C28.3628 16.7 30.252 18.387 32.1623 18.0109Z" fill="#F1A7B6"/>
<path d="M50.5289 19.3396C50.01 16.133 47.2234 13.6763 43.8726 13.6763C40.5219 13.6763 37.7351 16.133 37.2164 19.3396C34.8313 20.3801 33.1597 22.7597 33.1597 25.5235C33.1597 29.2421 36.1849 32.2673 39.9035 32.2673C41.3864 32.2673 42.7582 31.7851 43.8729 30.9708C44.9873 31.7851 46.3592 32.2673 47.8423 32.2673C51.5609 32.2673 54.5861 29.2421 54.5861 25.5235C54.5859 22.7597 52.9137 20.3801 50.5289 19.3396Z" fill="#F1A7B6"/>
</svg>
