<svg width="52" height="60" viewBox="0 0 52 60" fill="none" xmlns="http://www.w3.org/2000/svg">
<path d="M50.2398 10.3607C41.9846 8.09873 33.6808 4.57666 26.2262 0.175341C25.8302 -0.0584472 25.3388 -0.0584472 24.943 0.175341C17.2733 4.70311 9.41822 8.03462 0.928592 10.3607C0.380156 10.5108 0 11.0093 0 11.578V24.474C0 37.754 6.12643 46.5445 11.266 51.5801C16.7991 57.0018 23.2444 60 25.5846 60C27.9244 60 34.3697 57.0018 39.9029 51.5801C45.0423 46.5446 51.1684 37.7541 51.1684 24.474V11.5779C51.1684 11.0093 50.7883 10.5108 50.2398 10.3607ZM48.6442 24.4739C48.6442 36.8773 42.93 45.0799 38.1361 49.777C32.695 55.1084 26.8775 57.4756 25.5846 57.4756C24.2916 57.4756 18.4738 55.1084 13.0325 49.777C8.23873 45.0798 2.52433 36.8773 2.52433 24.4739V12.536C10.6428 10.2309 18.2035 7.01404 25.5848 2.72463C32.7817 6.90025 40.7196 10.2771 48.6442 12.5356V24.4739Z" fill="black"/>
<path d="M14.3973 12.3951C14.1418 11.7465 13.409 11.4279 12.7603 11.6834C10.5056 12.5718 8.19138 13.3896 5.88197 14.114C5.35568 14.2793 4.99756 14.7668 4.99756 15.3182V20.1922C4.99756 20.8892 5.56275 21.4543 6.25967 21.4543C6.95658 21.4543 7.52177 20.8892 7.52177 20.1922V16.2406C9.59353 15.5703 11.6631 14.8289 13.6856 14.0319C14.3342 13.7765 14.6529 13.0437 14.3973 12.3951Z" fill="black"/>
<path d="M16.7948 12.6344C16.9641 12.6344 17.136 12.6003 17.3009 12.5283L17.3241 12.5182C17.9627 12.2384 18.2502 11.4951 17.9704 10.8568C17.6903 10.2182 16.9428 9.92934 16.3049 10.209L16.2845 10.2177C15.6456 10.4968 15.3571 11.2395 15.6361 11.8782C15.8432 12.3523 16.3079 12.6344 16.7948 12.6344Z" fill="black"/>
<path d="M40.622 40.6973C40.0388 40.3161 39.2567 40.4801 38.875 41.0636C37.8349 42.6554 36.6148 44.1798 35.2479 45.5939C34.1239 46.7566 32.9058 47.8404 31.6276 48.8148C31.0735 49.2374 30.9668 50.0293 31.3893 50.5837C31.6378 50.9094 32.0137 51.0807 32.3938 51.0807C32.6608 51.0807 32.9297 50.9965 33.1582 50.8221C34.5369 49.7708 35.8506 48.6021 37.0626 47.3484C38.5404 45.8198 39.8611 44.1698 40.9882 42.4443C41.3697 41.8607 41.2055 41.0786 40.622 40.6973Z" fill="black"/>
<path d="M28.6966 50.7942L28.6242 50.8368C28.021 51.1862 27.8149 51.9582 28.1641 52.5614C28.3981 52.9657 28.8218 53.1914 29.2576 53.1914C29.472 53.1914 29.6898 53.1366 29.8886 53.0212L29.9722 52.9721C30.5737 52.6198 30.7757 51.8468 30.4235 51.2452C30.071 50.6439 29.2978 50.4423 28.6966 50.7942Z" fill="black"/>
<path d="M16.9816 27.4242C16.2066 26.6491 15.1759 26.2226 14.0798 26.2226C12.9836 26.2226 11.9528 26.6492 11.1775 27.4242C9.57755 29.0245 9.57755 31.6284 11.1775 33.2286L18.6301 40.681C19.4052 41.4559 20.4359 41.8825 21.5322 41.8825C22.6285 41.8825 23.6591 41.4559 24.4343 40.6808L39.9922 25.1228C41.5921 23.5221 41.5921 20.9185 39.992 19.3188C39.2169 18.5437 38.1862 18.1172 37.0898 18.1172C35.9936 18.1172 34.9629 18.5439 34.1877 19.3188L21.5321 31.9745L16.9816 27.4242ZM35.9727 21.1038C36.2709 20.8056 36.6678 20.6414 37.09 20.6414C37.5123 20.6414 37.9089 20.8056 38.2073 21.1038C38.8232 21.7196 38.8232 22.7221 38.2071 23.3381L22.6494 38.8959C22.3512 39.1941 21.9543 39.3583 21.5322 39.3583C21.1101 39.3583 20.7132 39.1941 20.4148 38.8959L12.9624 31.4437C12.3463 30.8277 12.3463 29.8253 12.9622 29.2094C13.2605 28.9112 13.6574 28.7468 14.0797 28.7468C14.5019 28.7468 14.8986 28.911 15.1968 29.2092L20.6396 34.6521C20.8764 34.8887 21.1973 35.0217 21.5321 35.0217C21.8669 35.0217 22.1877 34.8888 22.4243 34.6521L35.9727 21.1038Z" fill="black"/>
</svg>
