<svg width="60" height="46" viewBox="0 0 60 46" fill="none" xmlns="http://www.w3.org/2000/svg">
<path d="M59.2284 36.1539H57.3539V25.6702C57.3539 24.4436 56.9837 23.2401 56.2971 22.2219L51.599 15.2636C50.4495 13.5664 48.5365 12.5481 46.4844 12.5481H39.2021C38.3458 12.5481 37.6593 13.2424 37.6593 14.091V36.1541H25.7328C26.8668 37.1337 27.6459 38.4992 27.8697 40.0421H40.4441C40.8914 36.9796 43.5298 34.6111 46.7158 34.6111C49.9019 34.6111 52.5325 36.9796 52.98 40.0421H59.2285C59.6528 40.0421 60 39.695 60 39.2706V36.9255C59.9999 36.5012 59.6528 36.1539 59.2284 36.1539ZM51.545 23.6104H41.9329C41.5087 23.6104 41.1615 23.2709 41.1615 22.839V17.5084C41.1615 17.0841 41.5087 16.7369 41.9329 16.7369H47.7882C48.0428 16.7369 48.2741 16.8603 48.4207 17.0609L52.1776 22.3993C52.5324 22.9085 52.1698 23.6104 51.545 23.6104ZM46.7158 36.1539C44.0621 36.1539 41.9175 38.3061 41.9175 40.9599C41.9175 43.6059 44.0621 45.7582 46.7158 45.7582C49.3618 45.7582 51.5141 43.6059 51.5141 40.9599C51.5141 38.3063 49.3618 36.1539 46.7158 36.1539ZM46.7158 43.3593C45.3889 43.3593 44.3166 42.2793 44.3166 40.9602C44.3166 39.6332 45.3889 38.5608 46.7158 38.5608C48.0426 38.5608 49.115 39.6332 49.115 40.9602C49.115 42.2793 48.0427 43.3593 46.7158 43.3593ZM6.7092 36.1539C6.28489 36.1539 5.93774 36.5012 5.93774 36.9254V39.2706C5.93774 39.695 6.28489 40.0421 6.7092 40.0421H15.3338C15.5575 38.4992 16.3366 37.1337 17.463 36.1541H6.7092V36.1539ZM21.5978 36.1539C18.9518 36.1539 16.7995 38.3061 16.7995 40.9599C16.7995 43.6059 18.9518 45.7582 21.5978 45.7582C24.2515 45.7582 26.3961 43.6059 26.3961 40.9599C26.3962 38.3063 24.2516 36.1539 21.5978 36.1539ZM21.5978 43.3593C20.2709 43.3593 19.1987 42.2793 19.1987 40.9602C19.1987 39.6332 20.2709 38.5608 21.5978 38.5608C22.9247 38.5608 23.997 39.6332 23.997 40.9602C23.997 42.2793 22.9247 43.3593 21.5978 43.3593ZM33.1386 7.76514H24.1976C24.6373 9.06886 24.8688 10.4651 24.8688 11.9078C24.8688 19.1901 18.9442 25.1148 11.6618 25.1148C10.3349 25.1148 9.04665 24.9143 7.83548 24.5516V33.076C7.83548 33.5004 8.18263 33.8475 8.60695 33.8475H34.6814C35.1058 33.8475 35.4529 33.5004 35.4529 33.076V10.0795C35.4528 8.79886 34.4191 7.76514 33.1386 7.76514ZM11.6636 0.241699C5.22195 0.241699 0 5.46357 0 11.9052C0 18.3469 5.22195 23.5689 11.6636 23.5689C18.1053 23.5689 23.3273 18.3469 23.3273 11.9052C23.3273 5.46357 18.1053 0.241699 11.6636 0.241699ZM11.6636 20.9147C6.68793 20.9147 2.65421 16.881 2.65421 11.9052C2.65421 6.92945 6.68793 2.89582 11.6636 2.89582C16.6394 2.89582 20.673 6.92955 20.673 11.9052C20.673 16.881 16.6394 20.9147 11.6636 20.9147ZM15.1045 13.808C15.0051 13.808 14.9033 13.7951 14.8023 13.7681L11.0432 12.7548C10.5385 12.6185 10.1874 12.1605 10.1874 11.6376V5.8518C10.1874 5.21298 10.7058 4.69464 11.3446 4.69464C11.9834 4.69464 12.5017 5.21298 12.5017 5.8518V10.7509L15.4051 11.5336C16.0221 11.7 16.3874 12.3352 16.221 12.9521C16.0816 13.4682 15.6146 13.808 15.1045 13.808Z" fill="black"/>
</svg>
