<svg width="60" height="60" viewBox="0 0 60 60" fill="none" xmlns="http://www.w3.org/2000/svg">
<g clip-path="url(#clip0)">
<path d="M43.5322 5.69273C43.3809 5.23136 42.8841 4.98023 42.4231 5.1314L42.111 5.23371V4.89234C42.111 4.40683 41.7175 4.01343 41.2321 4.01343C40.7467 4.01343 40.3532 4.40683 40.3532 4.89234V5.23383L40.0411 5.13152C39.58 4.9807 39.0834 5.2316 38.9321 5.69285C38.781 6.1541 39.0324 6.65063 39.4935 6.80192L39.8174 6.90821L39.6136 7.19145C39.1935 7.77517 39.6168 8.584 40.3261 8.584C40.8384 8.584 41.0376 8.22201 41.2322 7.95166L41.4243 8.21837C41.7077 8.61213 42.2568 8.70201 42.6512 8.41818C43.045 8.13459 43.1346 7.58544 42.851 7.19134L42.6471 6.90809L42.971 6.8018C43.4321 6.65051 43.6835 6.15399 43.5322 5.69273Z" fill="black"/>
<path d="M52.2231 15.1271C52.0718 14.6657 51.575 14.4146 51.114 14.5657L50.802 14.668V14.3267C50.802 13.8412 50.4084 13.4478 49.923 13.4478C49.4377 13.4478 49.0441 13.8412 49.0441 14.3267V14.668L48.7321 14.5657C48.2709 14.4151 47.7744 14.6658 47.623 15.1271C47.4719 15.5882 47.7233 16.0847 48.1844 16.236L48.5084 16.3423L48.3044 16.6255C48.021 17.0195 48.1104 17.5688 48.5044 17.8524C48.8988 18.1363 49.4476 18.0461 49.7312 17.6526L49.9232 17.3859C50.1078 17.6424 50.3099 18.0182 50.8293 18.0182C51.5371 18.0182 51.9626 17.2103 51.5419 16.6257L51.338 16.3424L51.6619 16.2361C52.123 16.0848 52.3744 15.5883 52.2231 15.1271Z" fill="black"/>
<path d="M40.4883 13.9746C40.9737 13.9746 41.3672 13.5811 41.3672 13.0957C41.3672 12.6103 40.9737 12.2168 40.4883 12.2168C40.0029 12.2168 39.6094 12.6103 39.6094 13.0957C39.6094 13.5811 40.0029 13.9746 40.4883 13.9746Z" fill="black"/>
<path d="M54.5508 28.2024C55.0362 28.2024 55.4297 27.8089 55.4297 27.3235C55.4297 26.8381 55.0362 26.4446 54.5508 26.4446C54.0654 26.4446 53.6719 26.8381 53.6719 27.3235C53.6719 27.8089 54.0654 28.2024 54.5508 28.2024Z" fill="black"/>
<path d="M45.4102 21.4746C45.8956 21.4746 46.2891 21.0811 46.2891 20.5957C46.2891 20.1103 45.8956 19.7168 45.4102 19.7168C44.9248 19.7168 44.5312 20.1103 44.5312 20.5957C44.5312 21.0811 44.9248 21.4746 45.4102 21.4746Z" fill="black"/>
<path d="M54.9033 9.99024C55.3887 9.99024 55.7822 9.59674 55.7822 9.11133C55.7822 8.62592 55.3887 8.23242 54.9033 8.23242C54.4179 8.23242 54.0244 8.62592 54.0244 9.11133C54.0244 9.59674 54.4179 9.99024 54.9033 9.99024Z" fill="black"/>
<path d="M38.665 15.1744C38.2074 14.6079 37.5589 14.5511 37.5589 14.5511C37.055 14.4814 36.629 14.8385 36.5628 15.2952C36.4921 15.7779 36.8274 16.2212 37.3058 16.2913L35.7378 17.8194C35.5304 18.0222 35.4354 18.3128 35.4847 18.5976L35.855 20.7563C35.855 20.7563 35.855 20.7563 35.8538 20.7563C33.2716 19.3977 33.7257 19.4066 31.1628 20.755H31.1616C31.1603 20.7563 31.1603 20.7563 31.1591 20.7563L31.5294 18.5976C31.5787 18.3128 31.4837 18.0223 31.2775 17.8194L29.7085 16.2913L31.8764 15.9762C32.1624 15.934 32.4096 15.7546 32.5374 15.4956L33.5077 13.5315L33.8897 14.3061C34.0386 14.6085 34.341 14.797 34.6784 14.797C35.329 14.797 35.7531 14.1127 35.467 13.5279L35.0839 12.7534C34.4384 11.4315 32.5595 11.4648 31.9303 12.7534L31.1664 14.3026C29.4228 14.5559 28.8776 14.5203 28.3492 15.1744C28.089 15.4943 27.9507 15.8822 27.9507 16.2959C27.944 17.2075 28.4766 17.5438 29.7191 18.7558L29.4273 20.4597C29.4097 20.5581 29.4015 20.6601 29.4015 20.762C29.4004 21.2331 29.5949 21.6902 29.9336 22.0159C30.2738 22.3454 30.7135 22.5163 31.1617 22.5163C31.7104 22.5163 31.9036 22.3518 33.5065 21.5085H33.5077L35.037 22.3123C36.1999 22.9291 37.616 22.0731 37.6128 20.762C37.6128 20.6601 37.6046 20.5581 37.587 20.4597L37.2952 18.7558L38.5326 17.5499C39.1926 16.9125 39.2417 15.8836 38.665 15.1744Z" fill="black"/>
<path d="M59.1211 30.7911H47.4232L47.8401 30.3846C49.0148 29.2397 48.3656 27.2434 46.743 27.0079L44.4857 26.6798L43.4763 24.6344C42.7504 23.1633 40.6515 23.164 39.9259 24.6344L38.9164 26.6798L36.6592 27.0079C35.036 27.2436 34.3879 29.2401 35.562 30.3846L35.979 30.7911H32.8344C32.8859 30.2834 32.718 29.7575 32.33 29.3692L27.3582 24.3974C26.6728 23.7121 25.5577 23.7121 24.8724 24.3974C23.1733 26.0966 22.6715 26.5983 21.8133 27.4566L18.4442 24.0874C17.6205 23.2636 16.4569 22.9519 15.3314 23.2533C14.2061 23.5548 13.3542 24.4068 13.0527 25.532L11.2908 32.1076C10.2388 32.5543 9.41342 33.3793 8.96658 34.4319L2.39115 36.1937C-0.00499341 36.8355 -0.809138 39.8295 0.946458 41.5854L4.31562 44.9546C2.58744 46.6827 1.42318 47.8471 1.25654 48.0136C0.569463 48.7006 0.569463 49.8126 1.25654 50.4997L6.22836 55.4716C6.57102 55.8143 7.02114 55.9856 7.47126 55.9856C7.92138 55.9856 8.3715 55.8143 8.71416 55.4716L31.6362 32.5489H58.2422V53.3498C58.241 53.8326 57.8473 54.2274 57.3633 54.2287H27.7153C27.2313 54.2274 26.8375 53.8326 26.8364 53.3498V42.1408C26.8364 41.6568 26.4426 41.2618 25.9575 41.2618C25.4735 41.2618 25.0797 41.6556 25.0786 42.1384C25.0786 42.1396 25.0786 42.1408 25.0786 42.1408V53.3498C25.0786 54.0541 25.3528 54.7162 25.8508 55.2143C26.3489 55.711 27.011 55.9865 27.7153 55.9865H57.3633C58.814 55.9865 60 54.8131 60 53.3498V31.67C60 31.1808 59.6001 30.7911 59.1211 30.7911ZM14.7503 25.9872C15.0421 24.8982 16.4029 24.5323 17.2009 25.3305L20.5701 28.6996C19.3601 29.9096 17.9725 31.2972 16.5074 32.7624L17.5678 28.8047C17.6935 28.3358 17.4153 27.8539 16.9464 27.7282C16.4775 27.6025 15.9955 27.8808 15.87 28.3497L14.8492 32.1596C14.3271 31.9183 13.7692 31.7842 13.2036 31.76L14.7503 25.9872ZM12.267 33.6214C13.2198 33.3434 14.2406 33.6133 14.9268 34.3432C13.6941 35.5758 12.4341 36.8358 11.2016 38.0683C9.71237 36.6651 10.3277 34.1871 12.267 33.6214ZM2.18912 40.3426C1.8147 39.9681 1.67291 39.4391 1.81002 38.9276C1.94701 38.416 2.33432 38.0289 2.84573 37.8917L8.61865 36.345C8.64291 36.9105 8.77697 37.4685 9.01814 37.9907L5.20836 39.0115C4.73937 39.137 4.46117 39.6191 4.58691 40.088C4.71253 40.5568 5.19441 40.835 5.66328 40.7095L9.62096 39.6491C8.15576 41.1143 6.76778 42.5024 5.55816 43.7119L2.18912 40.3426ZM7.47091 54.2287L2.4992 49.2569C2.68518 49.0709 4.11218 47.6439 6.17973 45.5764C6.17973 45.5762 6.17973 45.5762 6.17973 45.5762L6.17985 45.5761C7.79001 43.966 20.4961 31.2596 22.4343 29.3213L22.4346 29.3211C23.9759 27.7796 21.9698 29.7858 26.115 25.6405L31.0875 30.6114L7.47091 54.2287ZM46.6132 29.1258L44.9048 30.7912H38.4972C36.6604 29.0006 36.674 29.079 36.7327 28.8985C36.7921 28.7157 36.705 28.7774 39.6263 28.353C39.9126 28.3115 40.1601 28.1316 40.2881 27.8722C41.5987 25.2167 41.5111 25.2886 41.701 25.2886C41.891 25.2886 41.8033 25.2167 43.1138 27.8722C43.2419 28.1316 43.4893 28.3114 43.7756 28.353L46.4902 28.7474C46.6736 28.774 46.7461 28.9962 46.6132 29.1258Z" fill="black"/>
</g>
<defs>
<clipPath id="clip0">
<rect width="60" height="60" fill="white"/>
</clipPath>
</defs>
</svg>
