<svg width="16" height="16" viewBox="0 0 16 16" fill="none" xmlns="http://www.w3.org/2000/svg">
<g clip-path="url(#clip0)">
<path d="M15.65 7.28242C15.965 6.97549 16.0761 6.52503 15.9403 6.10629C15.8041 5.68755 15.4495 5.38863 15.0137 5.32519L11.1397 4.76228C10.9747 4.73825 10.8321 4.63476 10.7584 4.48515L9.0264 0.975013C8.83193 0.58062 8.43721 0.335526 7.99732 0.335526C7.55776 0.335526 7.16304 0.58062 6.96857 0.975013L5.23625 4.48547C5.16256 4.63509 5.01967 4.73857 4.85467 4.7626L0.980584 5.32551C0.545182 5.38863 0.190196 5.68787 0.0540323 6.10661C-0.0818108 6.52535 0.0293627 6.97581 0.344301 7.28274L3.14734 10.015C3.26685 10.1316 3.32163 10.2995 3.29344 10.4635L2.63217 14.3216C2.57354 14.6612 2.6626 14.9915 2.88239 15.252C3.22392 15.6579 3.82015 15.7816 4.29688 15.531L7.76152 13.7093C7.90633 13.6334 8.08863 13.634 8.23313 13.7093L11.6981 15.531C11.8666 15.6198 12.0463 15.6646 12.2318 15.6646C12.5705 15.6646 12.8915 15.5141 13.1123 15.252C13.3324 14.9915 13.4211 14.6606 13.3625 14.3216L12.7009 10.4635C12.6727 10.2992 12.7275 10.1316 12.847 10.015L15.65 7.28242Z" fill="#FAAC3D"/>
<path d="M15.65 7.28242C15.965 6.97549 16.0761 6.52503 15.9403 6.10629C15.8041 5.68755 15.4495 5.38863 15.0137 5.32519L11.1397 4.76228C10.9747 4.73825 10.8321 4.63476 10.7584 4.48515L9.0264 0.975013C8.83193 0.58062 8.43721 0.335526 7.99732 0.335526C7.55776 0.335526 7.16304 0.58062 6.96857 0.975013L5.23625 4.48547C5.16256 4.63509 5.01967 4.73857 4.85467 4.7626L0.980584 5.32551C0.545182 5.38863 0.190196 5.68787 0.0540323 6.10661C-0.0818108 6.52535 0.0293627 6.97581 0.344301 7.28274L3.14734 10.015C3.26685 10.1316 3.32163 10.2995 3.29344 10.4635L2.63217 14.3216C2.57354 14.6612 2.6626 14.9915 2.88239 15.252C3.22392 15.6579 3.82015 15.7816 4.29688 15.531L7.76152 13.7093C7.90633 13.6334 8.08863 13.634 8.23313 13.7093L11.6981 15.531C11.8666 15.6198 12.0463 15.6646 12.2318 15.6646C12.5705 15.6646 12.8915 15.5141 13.1123 15.252C13.3324 14.9915 13.4211 14.6606 13.3625 14.3216L12.7009 10.4635C12.6727 10.2992 12.7275 10.1316 12.847 10.015L15.65 7.28242Z" fill="#FAAC3D"/>
<path d="M15.65 7.28242C15.965 6.97549 16.0761 6.52503 15.9403 6.10629C15.8041 5.68755 15.4495 5.38863 15.0137 5.32519L11.1397 4.76228C10.9747 4.73825 10.8321 4.63476 10.7584 4.48515L9.0264 0.975013C8.83193 0.58062 8.43721 0.335526 7.99732 0.335526C7.55776 0.335526 7.16304 0.58062 6.96857 0.975013L5.23625 4.48547C5.16256 4.63509 5.01967 4.73857 4.85467 4.7626L0.980584 5.32551C0.545182 5.38863 0.190196 5.68787 0.0540323 6.10661C-0.0818108 6.52535 0.0293627 6.97581 0.344301 7.28274L3.14734 10.015C3.26685 10.1316 3.32163 10.2995 3.29344 10.4635L2.63217 14.3216C2.57354 14.6612 2.6626 14.9915 2.88239 15.252C3.22392 15.6579 3.82015 15.7816 4.29688 15.531L7.76152 13.7093C7.90633 13.6334 8.08863 13.634 8.23313 13.7093L11.6981 15.531C11.8666 15.6198 12.0463 15.6646 12.2318 15.6646C12.5705 15.6646 12.8915 15.5141 13.1123 15.252C13.3324 14.9915 13.4211 14.6606 13.3625 14.3216L12.7009 10.4635C12.6727 10.2992 12.7275 10.1316 12.847 10.015L15.65 7.28242Z" fill="#FAAC3D"/>
</g>
<defs>
<clipPath id="clip0">
<rect width="16" height="16" fill="white"/>
</clipPath>
</defs>
</svg>
