<svg width="24" height="24" viewBox="0 0 24 24" fill="none" xmlns="http://www.w3.org/2000/svg">
<path d="M23.6297 4.84256H21.6756C21.7323 4.76291 21.7838 4.67923 21.8288 4.59152C22.0874 4.08651 22.1223 3.49178 21.9248 2.95968L21.3326 1.36812C21.1352 0.83656 20.7205 0.40919 20.1952 0.195688C19.6693 -0.0179969 19.0736 -0.00096805 18.5607 0.242563L13.8743 2.46822C13.6427 2.30269 13.3594 2.20491 13.0536 2.20491H10.9465C10.6407 2.20491 10.3572 2.30287 10.1256 2.4684L5.43935 0.24238C4.92647 -0.000968028 4.33083 -0.0179969 3.80495 0.195688C3.27962 0.40919 2.86488 0.83656 2.66749 1.36793L2.07533 2.95986C1.87775 3.49178 1.91273 4.08651 2.17146 4.59152C2.21632 4.67923 2.26795 4.76309 2.32472 4.84256H0.370424C0.165894 4.84256 0 5.00827 0 5.21298V7.87956C0 8.08409 0.165894 8.24998 0.370424 8.24998C0.574954 8.24998 0.740848 8.08409 0.740848 7.87956V5.58322H3.31367C3.35487 5.59769 3.39662 5.61106 3.43892 5.62277L6.54861 6.4788C5.85757 7.5377 5.24801 8.65154 4.72615 9.80565H0.740848V9.36107C0.740848 9.15654 0.574954 8.99083 0.370424 8.99083C0.165894 8.99083 0 9.15654 0 9.36107V10.1761C0 10.3806 0.165894 10.5465 0.370424 10.5465H1.69135V23.66C1.69135 23.8647 1.85725 24.0304 2.06178 24.0304H21.9383C22.1429 24.0304 22.3087 23.8647 22.3087 23.66V21.5093C22.3087 21.3047 22.1429 21.1388 21.9383 21.1388C21.7336 21.1388 21.5679 21.3047 21.5679 21.5093V23.2898H14.2222V10.7743C15.2714 12.7615 15.9817 14.9224 16.3085 17.155C16.3301 17.3028 16.4385 17.4231 16.5834 17.46C16.6138 17.4679 16.6445 17.4716 16.6751 17.4716C16.7896 17.4716 16.8998 17.4185 16.9708 17.3242C17.5033 16.6178 17.9984 15.8615 18.4454 15.072C19.1939 15.5817 19.9207 16.1501 20.6103 16.7653C20.7265 16.869 20.8953 16.8889 21.0325 16.815C21.1696 16.7412 21.246 16.5894 21.2233 16.4352C20.9276 14.4179 20.3762 12.4341 19.5947 10.5465H21.5677V20.0276C21.5677 20.2323 21.7336 20.398 21.9381 20.398C22.1429 20.398 22.3086 20.2323 22.3086 20.0276V10.5465H23.6297C23.8342 10.5465 23.9999 10.3806 23.9999 10.1761V5.21298C24.0001 5.00827 23.8344 4.84256 23.6297 4.84256ZM18.8784 0.911633C19.2089 0.754894 19.5774 0.744274 19.9163 0.88197C20.2547 1.01948 20.511 1.28371 20.6383 1.6263L21.2303 3.21767C21.3577 3.56045 21.3359 3.92849 21.1693 4.25387C21.0028 4.57907 20.717 4.81161 20.3647 4.90848L14.4685 6.53171V4.75155C15.7938 3.94003 19.0978 2.26625 19.9201 3.42696C20.0382 3.59377 20.2693 3.63351 20.4363 3.51522C20.6033 3.39693 20.6428 3.16567 20.5246 2.99886C19.8899 2.10292 18.5525 2.05934 16.5491 2.86959C15.7239 3.20321 14.962 3.61044 14.4685 3.89297V3.61959C14.4685 3.42129 14.4273 3.23232 14.3533 3.06075L18.8784 0.911633ZM10.9465 2.94558H13.0536C13.4253 2.94558 13.7277 3.24807 13.7277 3.61959V6.68131C13.7277 7.05302 13.4253 7.35533 13.0536 7.35533H10.9465C10.5748 7.35533 10.2724 7.05302 10.2724 6.68131V3.61959C10.2724 3.24789 10.5748 2.94558 10.9465 2.94558ZM10.3239 9.80547C10.6782 9.21678 11.0638 8.64622 11.4787 8.09617H12.521C12.9361 8.64622 13.3217 9.21678 13.6758 9.80547H10.3239ZM2.83082 4.25387C2.6642 3.92849 2.64241 3.56045 2.76966 3.21786L3.36201 1.62611C3.48909 1.28371 3.74544 1.01948 4.08382 0.88197C4.42256 0.744274 4.79116 0.754894 5.12148 0.911633L9.64677 3.06112C9.57279 3.23251 9.53159 3.42129 9.53159 3.61977V3.91421C9.03977 3.63113 8.26065 3.21181 7.41434 2.86959C5.41116 2.05934 4.07356 2.10292 3.43892 2.99886C3.32063 3.16567 3.36018 3.39693 3.52718 3.51522C3.69417 3.63351 3.92525 3.59396 4.04335 3.42696C4.87337 2.25527 8.23172 3.97171 9.53159 4.77408V6.53171L3.63557 4.90866C3.28309 4.81161 2.99727 4.57907 2.83082 4.25387ZM9.69785 7.3458C9.88224 7.69078 10.2052 7.95097 10.5921 8.05113C8.85978 10.4681 7.66721 13.2453 7.10782 16.1644C6.71432 15.5894 6.34646 14.9868 6.00973 14.3644C5.96047 14.2733 5.87551 14.207 5.77499 14.1815C5.67464 14.1561 5.56826 14.1738 5.48165 14.2304C4.86477 14.6327 4.2607 15.074 3.67732 15.5479C4.27809 12.3944 5.51937 9.35375 7.29935 6.68552L9.69785 7.3458ZM2.4322 10.5465H4.40535C3.62386 12.4341 3.07252 14.4177 2.77662 16.4352C2.7541 16.5894 2.83027 16.7412 2.96742 16.815C3.10475 16.8888 3.27339 16.869 3.38966 16.7653C4.07924 16.1501 4.80599 15.5817 5.55471 15.072C6.00167 15.8615 6.49661 16.6176 7.02926 17.3242C7.10031 17.4185 7.21054 17.4718 7.32498 17.4718C7.35556 17.4718 7.38632 17.4679 7.41672 17.46C7.56155 17.4231 7.66977 17.3028 7.69138 17.155C8.0184 14.9224 8.72867 12.7614 9.77769 10.7741V23.2898H2.4322V10.5465ZM10.5185 23.2898V10.5465H13.4816V23.2898H10.5185ZM18.5184 14.2304C18.4318 14.1738 18.3253 14.1563 18.2251 14.1817C18.1248 14.2072 18.0396 14.2734 17.9904 14.3644C17.6536 14.9868 17.2858 15.5896 16.8923 16.1644C16.3329 13.2451 15.1403 10.4681 13.4078 8.05131C13.7947 7.95134 14.1179 7.69096 14.3022 7.3458L16.7013 6.68534C18.4809 9.35411 19.7222 12.3948 20.323 15.5479C19.7394 15.074 19.1353 14.6327 18.5184 14.2304ZM23.2593 9.80565H19.2741C18.7523 8.65154 18.1427 7.5377 17.4519 6.4788L20.5612 5.62277C20.6035 5.61106 20.6452 5.59769 20.6864 5.58322H23.2593V9.80565Z" fill="white"/>
</svg>
