<svg width="18" height="18" viewBox="0 0 18 18" fill="none" xmlns="http://www.w3.org/2000/svg">
<path d="M18 2.25C18 1.8 17.7 1.5 17.25 1.5H0.75C0.3 1.5 0 1.8 0 2.25V3.75C0 4.2 0.3 4.5 0.75 4.5H17.25C17.7 4.5 18 4.2 18 3.75V2.25Z" fill="#606060"/>
<path d="M18 8.25C18 7.8 17.7 7.5 17.25 7.5H0.75C0.3 7.5 0 7.8 0 8.25V9.75C0 10.2 0.3 10.5 0.75 10.5H17.25C17.7 10.5 18 10.2 18 9.75V8.25Z" fill="#606060"/>
<path d="M18 14.25C18 13.8 17.7 13.5 17.25 13.5H0.75C0.3 13.5 0 13.8 0 14.25V15.75C0 16.2 0.3 16.5 0.75 16.5H17.25C17.7 16.5 18 16.2 18 15.75V14.25Z" fill="#606060"/>
</svg>
