<svg width="60" height="46" viewBox="0 0 60 46" fill="none" xmlns="http://www.w3.org/2000/svg">
<path d="M59.2284 36.154H57.3539V25.6703C57.3539 24.4437 56.9837 23.2402 56.2971 22.222L51.599 15.2637C50.4495 13.5665 48.5365 12.5482 46.4844 12.5482H39.2021C38.3458 12.5482 37.6593 13.2425 37.6593 14.0911V36.1542H25.7328C26.8668 37.1338 27.6459 38.4993 27.8697 40.0422H40.4441C40.8914 36.9797 43.5298 34.6112 46.7158 34.6112C49.9019 34.6112 52.5325 36.9797 52.98 40.0422H59.2285C59.6528 40.0422 60 39.6951 60 39.2707V36.9255C59.9999 36.5013 59.6528 36.154 59.2284 36.154ZM51.545 23.6105H41.9329C41.5087 23.6105 41.1615 23.271 41.1615 22.8391V17.5085C41.1615 17.0842 41.5087 16.737 41.9329 16.737H47.7882C48.0428 16.737 48.2741 16.8604 48.4207 17.061L52.1776 22.3994C52.5324 22.9086 52.1698 23.6105 51.545 23.6105ZM46.7158 36.154C44.0621 36.154 41.9175 38.3062 41.9175 40.96C41.9175 43.606 44.0621 45.7583 46.7158 45.7583C49.3618 45.7583 51.5141 43.606 51.5141 40.96C51.5141 38.3064 49.3618 36.154 46.7158 36.154ZM46.7158 43.3594C45.3889 43.3594 44.3166 42.2794 44.3166 40.9603C44.3166 39.6333 45.3889 38.5609 46.7158 38.5609C48.0426 38.5609 49.115 39.6333 49.115 40.9603C49.115 42.2794 48.0427 43.3594 46.7158 43.3594ZM6.7092 36.154C6.28489 36.154 5.93774 36.5013 5.93774 36.9254V39.2707C5.93774 39.6951 6.28489 40.0422 6.7092 40.0422H15.3338C15.5575 38.4993 16.3366 37.1338 17.463 36.1542H6.7092V36.154ZM21.5978 36.154C18.9518 36.154 16.7995 38.3062 16.7995 40.96C16.7995 43.606 18.9518 45.7583 21.5978 45.7583C24.2515 45.7583 26.3961 43.606 26.3961 40.96C26.3962 38.3064 24.2516 36.154 21.5978 36.154ZM21.5978 43.3594C20.2709 43.3594 19.1987 42.2794 19.1987 40.9603C19.1987 39.6333 20.2709 38.5609 21.5978 38.5609C22.9247 38.5609 23.997 39.6333 23.997 40.9603C23.997 42.2794 22.9247 43.3594 21.5978 43.3594ZM33.1386 7.76523H24.1976C24.6373 9.06895 24.8688 10.4652 24.8688 11.9079C24.8688 19.1902 18.9442 25.1148 11.6618 25.1148C10.3349 25.1148 9.04665 24.9144 7.83548 24.5517V33.0761C7.83548 33.5004 8.18263 33.8476 8.60695 33.8476H34.6814C35.1058 33.8476 35.4529 33.5004 35.4529 33.0761V10.0795C35.4528 8.79895 34.4191 7.76523 33.1386 7.76523ZM11.6636 0.241791C5.22195 0.241791 0 5.46366 0 11.9053C0 18.347 5.22195 23.569 11.6636 23.569C18.1053 23.569 23.3273 18.347 23.3273 11.9053C23.3273 5.46366 18.1053 0.241791 11.6636 0.241791ZM11.6636 20.9147C6.68793 20.9147 2.65421 16.8811 2.65421 11.9053C2.65421 6.92954 6.68793 2.89591 11.6636 2.89591C16.6394 2.89591 20.673 6.92964 20.673 11.9053C20.673 16.8811 16.6394 20.9147 11.6636 20.9147ZM15.1045 13.8081C15.0051 13.8081 14.9033 13.7952 14.8023 13.7682L11.0432 12.7549C10.5385 12.6186 10.1874 12.1606 10.1874 11.6377V5.85189C10.1874 5.21307 10.7058 4.69474 11.3446 4.69474C11.9834 4.69474 12.5017 5.21307 12.5017 5.85189V10.751L15.4051 11.5337C16.0221 11.7001 16.3874 12.3353 16.221 12.9522C16.0816 13.4683 15.6146 13.8081 15.1045 13.8081Z" fill="#F1A7B6"/>
</svg>
