<svg width="14" height="15" viewBox="0 0 14 15" fill="none" xmlns="http://www.w3.org/2000/svg">
<path d="M10.5009 5.89731C10.5009 2.99807 8.15028 0.647308 5.25098 0.647308C2.35174 0.647308 0.000976562 2.99807 0.000976562 5.89731C0.000976562 8.79655 2.35174 11.1472 5.25098 11.1472C8.15028 11.1472 10.5009 8.79655 10.5009 5.89731ZM5.25098 9.83466C3.07971 9.83466 1.31351 8.06861 1.31351 5.89734C1.31351 3.72607 3.07971 1.95987 5.25098 1.95987C7.42219 1.95987 9.18853 3.72607 9.18853 5.89734C9.18853 8.06861 7.42219 9.83466 5.25098 9.83466Z" fill="#F1A7B6"/>
<path d="M13.6153 12.4069L10.4035 9.19489C9.92496 9.93916 9.29163 10.5722 8.54736 11.0508L11.7594 14.2628C12.2722 14.7755 13.1036 14.7755 13.6153 14.2628C14.1281 13.751 14.1281 12.9196 13.6153 12.4069Z" fill="#F1A7B6"/>
</svg>
